<svg xmlns="http://www.w3.org/2000/svg" viewBox="0 0 600 600"><rect width="600" height="600" fill="#dbd2ed"/><path d="M300 0H600V600H300" fill="#acd7df"/><circle cx="145" cy="160" r="67" fill="#ffedb6"/><g transform="translate(145 300) scale(1.15)" fill="#fff" opacity=".9"><ellipse rx="95" ry="30"/><circle cx="-40" cy="-22" r="35"/><circle cx="15" cy="-40" r="48"/><circle cx="65" cy="-15" r="32"/></g><path d="M0 460 Q70 405 140 460 T280 460 T420 460 T560 460 T700 460 V600 H0Z" fill="#62aebe"/><path d="M0 535 Q70 480 140 535 T280 535 T420 535 T560 535 T700 535 V600 H0Z" fill="#35869f"/><path d="M335 0 Q380 180 335 340 T335 600" fill="none" stroke="#fff8e9" stroke-width="9"/><g transform="translate(470 320) scale(0.9)"><path d="M-40 10 Q-65 -85 0 -92 Q65 -82 42 15" fill="#29364a"/><path d="M-48 135 Q-50 12 0 8 Q50 12 48 135Z" fill="#cb735f"/><circle cy="-30" r="34" fill="#f5c9a1"/><path d="M-34 -45 Q-24 -85 15 -64 L35 -40 Q3 -44 -4 -65 Q-13 -44 -34 -45" fill="#29364a"/><circle cx="-12" cy="-27" r="3"/><circle cx="12" cy="-27" r="3"/><path d="M-7 -12 Q0 -6 8 -13" fill="none" stroke="#a9614e" stroke-width="3" stroke-linecap="round"/><path d="M-33 35 Q-85 55 -75 90 M34 35 Q74 62 78 87" fill="none" stroke="#f5c9a1" stroke-width="16" stroke-linecap="round"/></g><g transform="translate(440 390) scale(0.5)"><path d="M-40 10 Q-65 -85 0 -92 Q65 -82 42 15" fill="#29364a"/><path d="M-48 135 Q-50 12 0 8 Q50 12 48 135Z" fill="#e6b954"/><circle cy="-30" r="34" fill="#f5c9a1"/><path d="M-34 -45 Q-24 -85 15 -64 L35 -40 Q3 -44 -4 -65 Q-13 -44 -34 -45" fill="#29364a"/><circle cx="-12" cy="-27" r="3"/><circle cx="12" cy="-27" r="3"/><path d="M-7 -12 Q0 -6 8 -13" fill="none" stroke="#a9614e" stroke-width="3" stroke-linecap="round"/><path d="M-33 35 Q-85 55 -75 90 M34 35 Q74 62 78 87" fill="none" stroke="#f5c9a1" stroke-width="16" stroke-linecap="round"/></g></svg>