<svg xmlns="http://www.w3.org/2000/svg" viewBox="0 0 600 600"><rect width="600" height="600" fill="#f4eacb"/><circle cx="325" cy="260" r="215" fill="#e7d9b0"/><path d="M65 170 Q170 120 300 180 Q420 120 535 170 V440 Q420 390 300 450 Q165 390 65 440Z" fill="#fffcf1" stroke="#af9871" stroke-width="5"/><path d="M300 180V450" stroke="#af9871" stroke-width="4"/><g transform="translate(180 240) scale(0.55)" fill="#fff" opacity=".9"><ellipse rx="95" ry="30"/><circle cx="-40" cy="-22" r="35"/><circle cx="15" cy="-40" r="48"/><circle cx="65" cy="-15" r="32"/></g><path d="M355 265 Q385 225 415 265 T475 265 M355 305 Q385 265 415 305 T475 305" fill="none" stroke="#76b8c2" stroke-width="7"/><path d="M110 345H245 M110 375H220 M355 355H480 M355 385H460" stroke="#d0bd94" stroke-width="7" stroke-linecap="round"/></svg>